<mxfile host="app.diagrams.net" agent="Mozilla/5.0 (Windows NT 10.0; Win64; x64) AppleWebKit/537.36 (KHTML, like Gecko) Chrome/129.0.0.0 Safari/537.36" version="24.7.17">
  <diagram name="Page-1" id="OqW6dQnBmnJ8KERkSxpb">
    <mxGraphModel dx="5200" dy="1740" grid="1" gridSize="10" guides="1" tooltips="1" connect="1" arrows="1" fold="1" page="1" pageScale="1" pageWidth="850" pageHeight="1100" math="0" shadow="0">
      <root>
        <mxCell id="0" />
        <mxCell id="1" parent="0" />
        <mxCell id="RecCoixjSsOTJz9QzrSp-120" style="edgeStyle=orthogonalEdgeStyle;rounded=0;orthogonalLoop=1;jettySize=auto;html=1;entryX=0.5;entryY=0;entryDx=0;entryDy=0;fontSize=13;spacing=2;strokeWidth=4;" edge="1" parent="1" source="RecCoixjSsOTJz9QzrSp-1" target="RecCoixjSsOTJz9QzrSp-3">
          <mxGeometry relative="1" as="geometry" />
        </mxCell>
        <mxCell id="RecCoixjSsOTJz9QzrSp-1" value="START" style="ellipse;whiteSpace=wrap;html=1;fontSize=13;spacing=2;strokeWidth=4;" vertex="1" parent="1">
          <mxGeometry x="330" y="40" width="120" height="80" as="geometry" />
        </mxCell>
        <mxCell id="RecCoixjSsOTJz9QzrSp-34" style="edgeStyle=orthogonalEdgeStyle;rounded=0;orthogonalLoop=1;jettySize=auto;html=1;entryX=0.5;entryY=0;entryDx=0;entryDy=0;fontSize=13;spacing=2;strokeWidth=4;" edge="1" parent="1" source="RecCoixjSsOTJz9QzrSp-3" target="RecCoixjSsOTJz9QzrSp-9">
          <mxGeometry relative="1" as="geometry" />
        </mxCell>
        <mxCell id="RecCoixjSsOTJz9QzrSp-76" style="edgeStyle=orthogonalEdgeStyle;rounded=0;orthogonalLoop=1;jettySize=auto;html=1;entryX=0.5;entryY=0;entryDx=0;entryDy=0;fontSize=13;spacing=2;strokeWidth=4;" edge="1" parent="1" source="RecCoixjSsOTJz9QzrSp-3" target="RecCoixjSsOTJz9QzrSp-8">
          <mxGeometry relative="1" as="geometry" />
        </mxCell>
        <mxCell id="RecCoixjSsOTJz9QzrSp-78" style="edgeStyle=orthogonalEdgeStyle;rounded=0;orthogonalLoop=1;jettySize=auto;html=1;entryX=0.5;entryY=0;entryDx=0;entryDy=0;fontSize=13;spacing=2;strokeWidth=4;exitX=1;exitY=0.5;exitDx=0;exitDy=0;" edge="1" parent="1" source="RecCoixjSsOTJz9QzrSp-3">
          <mxGeometry relative="1" as="geometry">
            <mxPoint x="445.0044186046514" y="280.0032558139535" as="sourcePoint" />
            <mxPoint x="1320.03" y="359.98" as="targetPoint" />
          </mxGeometry>
        </mxCell>
        <mxCell id="RecCoixjSsOTJz9QzrSp-3" value="Pilih Role Atau Keluar" style="rhombus;whiteSpace=wrap;html=1;fontSize=13;spacing=2;strokeWidth=4;" vertex="1" parent="1">
          <mxGeometry x="335" y="220" width="110" height="100" as="geometry" />
        </mxCell>
        <mxCell id="RecCoixjSsOTJz9QzrSp-8" value="Keluar" style="shape=parallelogram;perimeter=parallelogramPerimeter;whiteSpace=wrap;html=1;fixedSize=1;fontSize=13;spacing=2;strokeWidth=4;" vertex="1" parent="1">
          <mxGeometry x="330" y="380" width="120" height="60" as="geometry" />
        </mxCell>
        <mxCell id="RecCoixjSsOTJz9QzrSp-79" style="edgeStyle=orthogonalEdgeStyle;rounded=0;orthogonalLoop=1;jettySize=auto;html=1;entryX=0.5;entryY=0;entryDx=0;entryDy=0;fontSize=13;spacing=2;strokeWidth=4;" edge="1" parent="1" source="RecCoixjSsOTJz9QzrSp-9" target="RecCoixjSsOTJz9QzrSp-11">
          <mxGeometry relative="1" as="geometry" />
        </mxCell>
        <mxCell id="RecCoixjSsOTJz9QzrSp-9" value="Admin" style="shape=parallelogram;perimeter=parallelogramPerimeter;whiteSpace=wrap;html=1;fixedSize=1;fontSize=13;spacing=2;strokeWidth=4;" vertex="1" parent="1">
          <mxGeometry x="-520" y="370" width="120" height="60" as="geometry" />
        </mxCell>
        <mxCell id="RecCoixjSsOTJz9QzrSp-100" style="edgeStyle=orthogonalEdgeStyle;rounded=0;orthogonalLoop=1;jettySize=auto;html=1;entryX=0.5;entryY=0;entryDx=0;entryDy=0;fontSize=13;spacing=2;strokeWidth=4;" edge="1" parent="1" source="RecCoixjSsOTJz9QzrSp-10" target="RecCoixjSsOTJz9QzrSp-19">
          <mxGeometry relative="1" as="geometry">
            <mxPoint x="1319.9999999999995" y="500" as="targetPoint" />
          </mxGeometry>
        </mxCell>
        <mxCell id="RecCoixjSsOTJz9QzrSp-10" value="Customer" style="shape=parallelogram;perimeter=parallelogramPerimeter;whiteSpace=wrap;html=1;fixedSize=1;fontSize=13;spacing=2;strokeWidth=4;" vertex="1" parent="1">
          <mxGeometry x="1260" y="370" width="120" height="60" as="geometry" />
        </mxCell>
        <mxCell id="RecCoixjSsOTJz9QzrSp-13" value="Salah" style="edgeStyle=orthogonalEdgeStyle;rounded=0;orthogonalLoop=1;jettySize=auto;html=1;fontSize=25;spacing=2;strokeWidth=4;" edge="1" parent="1" source="RecCoixjSsOTJz9QzrSp-11" target="RecCoixjSsOTJz9QzrSp-14">
          <mxGeometry relative="1" as="geometry">
            <mxPoint x="300" y="570.0000000000001" as="targetPoint" />
          </mxGeometry>
        </mxCell>
        <mxCell id="RecCoixjSsOTJz9QzrSp-81" value="Benar" style="edgeStyle=orthogonalEdgeStyle;rounded=0;orthogonalLoop=1;jettySize=auto;html=1;fontSize=25;spacing=2;strokeWidth=4;" edge="1" parent="1" source="RecCoixjSsOTJz9QzrSp-11" target="RecCoixjSsOTJz9QzrSp-16">
          <mxGeometry relative="1" as="geometry" />
        </mxCell>
        <mxCell id="RecCoixjSsOTJz9QzrSp-11" value="Login Admin&amp;nbsp;&lt;div style=&quot;font-size: 13px;&quot;&gt;&lt;div style=&quot;font-size: 13px;&quot;&gt;Username: ica&lt;/div&gt;&lt;div style=&quot;font-size: 13px;&quot;&gt;Password: 20042006&lt;/div&gt;&lt;div style=&quot;font-size: 13px;&quot;&gt;&lt;br style=&quot;font-size: 13px;&quot;&gt;&lt;/div&gt;&lt;/div&gt;" style="rhombus;whiteSpace=wrap;html=1;fontSize=13;spacing=2;strokeWidth=4;" vertex="1" parent="1">
          <mxGeometry x="-535" y="480" width="150" height="170" as="geometry" />
        </mxCell>
        <mxCell id="RecCoixjSsOTJz9QzrSp-14" value="Username atau Password Salah" style="shape=parallelogram;perimeter=parallelogramPerimeter;whiteSpace=wrap;html=1;fixedSize=1;fontSize=13;spacing=2;strokeWidth=4;" vertex="1" parent="1">
          <mxGeometry x="-260" y="535.0000000000001" width="120" height="60" as="geometry" />
        </mxCell>
        <mxCell id="RecCoixjSsOTJz9QzrSp-82" style="edgeStyle=orthogonalEdgeStyle;rounded=0;orthogonalLoop=1;jettySize=auto;html=1;entryX=0.5;entryY=0;entryDx=0;entryDy=0;fontSize=13;spacing=2;strokeWidth=4;" edge="1" parent="1" source="RecCoixjSsOTJz9QzrSp-16" target="RecCoixjSsOTJz9QzrSp-33">
          <mxGeometry relative="1" as="geometry">
            <mxPoint x="-650" y="650" as="targetPoint" />
          </mxGeometry>
        </mxCell>
        <mxCell id="RecCoixjSsOTJz9QzrSp-16" value="Login Berhasil" style="shape=parallelogram;perimeter=parallelogramPerimeter;whiteSpace=wrap;html=1;fixedSize=1;fontSize=13;spacing=2;strokeWidth=4;" vertex="1" parent="1">
          <mxGeometry x="-770" y="535" width="120" height="60" as="geometry" />
        </mxCell>
        <mxCell id="RecCoixjSsOTJz9QzrSp-103" value="4" style="edgeStyle=orthogonalEdgeStyle;rounded=0;orthogonalLoop=1;jettySize=auto;html=1;entryX=0.5;entryY=0;entryDx=0;entryDy=0;fontSize=25;spacing=2;strokeWidth=4;" edge="1" parent="1" source="RecCoixjSsOTJz9QzrSp-19" target="RecCoixjSsOTJz9QzrSp-31">
          <mxGeometry relative="1" as="geometry" />
        </mxCell>
        <mxCell id="RecCoixjSsOTJz9QzrSp-109" value="1" style="edgeStyle=orthogonalEdgeStyle;rounded=0;orthogonalLoop=1;jettySize=auto;html=1;fontSize=25;spacing=2;strokeWidth=4;" edge="1" parent="1" source="RecCoixjSsOTJz9QzrSp-19" target="RecCoixjSsOTJz9QzrSp-29">
          <mxGeometry relative="1" as="geometry" />
        </mxCell>
        <mxCell id="RecCoixjSsOTJz9QzrSp-111" value="2" style="edgeStyle=orthogonalEdgeStyle;rounded=0;orthogonalLoop=1;jettySize=auto;html=1;entryX=0.5;entryY=0;entryDx=0;entryDy=0;fontSize=25;spacing=2;strokeWidth=4;" edge="1" parent="1" source="RecCoixjSsOTJz9QzrSp-19" target="RecCoixjSsOTJz9QzrSp-28">
          <mxGeometry relative="1" as="geometry" />
        </mxCell>
        <mxCell id="RecCoixjSsOTJz9QzrSp-19" value="&lt;div style=&quot;font-size: 13px;&quot;&gt;Menu Customer&lt;/div&gt;&lt;div style=&quot;font-size: 13px;&quot;&gt;1. Lihat Jenis Makeup&lt;/div&gt;&lt;div style=&quot;font-size: 13px;&quot;&gt;2. Booking&lt;/div&gt;&lt;div style=&quot;font-size: 13px;&quot;&gt;3. Lihat Jadwal Booking&lt;/div&gt;&lt;div style=&quot;font-size: 13px;&quot;&gt;4. Keluar&lt;/div&gt;" style="rhombus;whiteSpace=wrap;html=1;fontSize=13;spacing=2;strokeWidth=4;" vertex="1" parent="1">
          <mxGeometry x="1235" y="530" width="170" height="230" as="geometry" />
        </mxCell>
        <mxCell id="RecCoixjSsOTJz9QzrSp-112" style="edgeStyle=orthogonalEdgeStyle;rounded=0;orthogonalLoop=1;jettySize=auto;html=1;entryX=0.5;entryY=0;entryDx=0;entryDy=0;fontSize=13;spacing=2;strokeWidth=4;" edge="1" parent="1" source="RecCoixjSsOTJz9QzrSp-28" target="RecCoixjSsOTJz9QzrSp-67">
          <mxGeometry relative="1" as="geometry" />
        </mxCell>
        <mxCell id="RecCoixjSsOTJz9QzrSp-28" value="2. Booking" style="shape=parallelogram;perimeter=parallelogramPerimeter;whiteSpace=wrap;html=1;fixedSize=1;fontSize=13;spacing=2;strokeWidth=4;" vertex="1" parent="1">
          <mxGeometry x="1260" y="919.9999999999998" width="120" height="60" as="geometry" />
        </mxCell>
        <mxCell id="RecCoixjSsOTJz9QzrSp-114" style="edgeStyle=orthogonalEdgeStyle;rounded=0;orthogonalLoop=1;jettySize=auto;html=1;entryX=0.5;entryY=0;entryDx=0;entryDy=0;fontSize=13;spacing=2;strokeWidth=4;" edge="1" parent="1" source="RecCoixjSsOTJz9QzrSp-29" target="RecCoixjSsOTJz9QzrSp-65">
          <mxGeometry relative="1" as="geometry" />
        </mxCell>
        <mxCell id="RecCoixjSsOTJz9QzrSp-29" value="1. Lihat Jenis Makeup" style="shape=parallelogram;perimeter=parallelogramPerimeter;whiteSpace=wrap;html=1;fixedSize=1;fontSize=13;spacing=2;strokeWidth=4;" vertex="1" parent="1">
          <mxGeometry x="1450" y="870" width="160" height="90" as="geometry" />
        </mxCell>
        <mxCell id="RecCoixjSsOTJz9QzrSp-110" style="edgeStyle=orthogonalEdgeStyle;rounded=0;orthogonalLoop=1;jettySize=auto;html=1;fontSize=13;spacing=2;strokeWidth=4;" edge="1" parent="1" source="RecCoixjSsOTJz9QzrSp-30" target="RecCoixjSsOTJz9QzrSp-72">
          <mxGeometry relative="1" as="geometry" />
        </mxCell>
        <mxCell id="RecCoixjSsOTJz9QzrSp-30" value="3. Lihat Jadwal Booking" style="shape=parallelogram;perimeter=parallelogramPerimeter;whiteSpace=wrap;html=1;fixedSize=1;fontSize=13;spacing=2;strokeWidth=4;" vertex="1" parent="1">
          <mxGeometry x="1032.5" y="890" width="120" height="60" as="geometry" />
        </mxCell>
        <mxCell id="RecCoixjSsOTJz9QzrSp-122" style="edgeStyle=orthogonalEdgeStyle;rounded=0;orthogonalLoop=1;jettySize=auto;html=1;fontSize=13;spacing=2;strokeWidth=4;exitX=0.5;exitY=0;exitDx=0;exitDy=0;" edge="1" parent="1" source="RecCoixjSsOTJz9QzrSp-31">
          <mxGeometry relative="1" as="geometry">
            <mxPoint x="390" y="150" as="targetPoint" />
            <Array as="points">
              <mxPoint x="900" y="780" />
              <mxPoint x="900" y="150" />
            </Array>
          </mxGeometry>
        </mxCell>
        <mxCell id="RecCoixjSsOTJz9QzrSp-31" value="4.Keluar" style="shape=parallelogram;perimeter=parallelogramPerimeter;whiteSpace=wrap;html=1;fixedSize=1;fontSize=13;spacing=2;strokeWidth=4;" vertex="1" parent="1">
          <mxGeometry x="870" y="780" width="120" height="60" as="geometry" />
        </mxCell>
        <mxCell id="RecCoixjSsOTJz9QzrSp-119" style="edgeStyle=orthogonalEdgeStyle;rounded=0;orthogonalLoop=1;jettySize=auto;html=1;fontSize=13;spacing=2;strokeWidth=4;" edge="1" parent="1" source="RecCoixjSsOTJz9QzrSp-32" target="RecCoixjSsOTJz9QzrSp-117">
          <mxGeometry relative="1" as="geometry" />
        </mxCell>
        <mxCell id="RecCoixjSsOTJz9QzrSp-32" value="&lt;br&gt;&lt;strong style=&quot;box-sizing: border-box; border-width: 0px; border-style: solid; border-color: hsl(var(--border)); border-image: initial; --tw-border-spacing-x: 0; --tw-border-spacing-y: 0; --tw-translate-x: 0; --tw-translate-y: 0; --tw-rotate: 0; --tw-skew-x: 0; --tw-skew-y: 0; --tw-scale-x: 1; --tw-scale-y: 1; --tw-pan-x: ; --tw-pan-y: ; --tw-pinch-zoom: ; --tw-scroll-snap-strictness: proximity; --tw-gradient-from-position: ; --tw-gradient-via-position: ; --tw-gradient-to-position: ; --tw-ordinal: ; --tw-slashed-zero: ; --tw-numeric-figure: ; --tw-numeric-spacing: ; --tw-numeric-fraction: ; --tw-ring-inset: ; --tw-ring-offset-width: 0px; --tw-ring-offset-color: #fff; --tw-ring-color: rgba(59,130,246,.5); --tw-ring-offset-shadow: 0 0 #0000; --tw-ring-shadow: 0 0 #0000; --tw-shadow: 0 0 #0000; --tw-shadow-colored: 0 0 #0000; --tw-blur: ; --tw-brightness: ; --tw-contrast: ; --tw-grayscale: ; --tw-hue-rotate: ; --tw-invert: ; --tw-saturate: ; --tw-sepia: ; --tw-drop-shadow: ; --tw-backdrop-blur: ; --tw-backdrop-brightness: ; --tw-backdrop-contrast: ; --tw-backdrop-grayscale: ; --tw-backdrop-hue-rotate: ; --tw-backdrop-invert: ; --tw-backdrop-opacity: ; --tw-backdrop-saturate: ; --tw-backdrop-sepia: ; font-weight: 600; color: var(--tw-prose-bold); font-family: __Inter_36bd41, __Inter_Fallback_36bd41, ui-sans-serif, system-ui, sans-serif, &amp;quot;Apple Color Emoji&amp;quot;, &amp;quot;Segoe UI Emoji&amp;quot;, &amp;quot;Segoe UI Symbol&amp;quot;, &amp;quot;Noto Color Emoji&amp;quot;; font-size: 13px; font-style: normal; font-variant-ligatures: normal; font-variant-caps: normal; letter-spacing: normal; orphans: 2; text-align: start; text-indent: 0px; text-transform: none; widows: 2; word-spacing: 0px; -webkit-text-stroke-width: 0px; white-space: normal; background-color: rgba(244, 244, 245, 0.5); text-decoration-thickness: initial; text-decoration-style: initial; text-decoration-color: initial;&quot;&gt;Terima kasih telah menggunakan Sistem Booking MUA By Ica!&lt;/strong&gt;&lt;div&gt;&lt;br/&gt;&lt;/div&gt;" style="shape=parallelogram;perimeter=parallelogramPerimeter;whiteSpace=wrap;html=1;fixedSize=1;fontSize=13;spacing=2;strokeWidth=4;" vertex="1" parent="1">
          <mxGeometry x="240" y="540" width="280" height="140" as="geometry" />
        </mxCell>
        <mxCell id="RecCoixjSsOTJz9QzrSp-84" value="5" style="edgeStyle=orthogonalEdgeStyle;rounded=0;orthogonalLoop=1;jettySize=auto;html=1;fontSize=25;spacing=2;strokeWidth=4;" edge="1" parent="1" source="RecCoixjSsOTJz9QzrSp-33" target="RecCoixjSsOTJz9QzrSp-42">
          <mxGeometry relative="1" as="geometry" />
        </mxCell>
        <mxCell id="RecCoixjSsOTJz9QzrSp-86" value="3" style="edgeStyle=orthogonalEdgeStyle;rounded=0;orthogonalLoop=1;jettySize=auto;html=1;fontSize=25;spacing=2;strokeWidth=4;" edge="1" parent="1" source="RecCoixjSsOTJz9QzrSp-33" target="RecCoixjSsOTJz9QzrSp-44">
          <mxGeometry relative="1" as="geometry" />
        </mxCell>
        <mxCell id="RecCoixjSsOTJz9QzrSp-87" value="1" style="edgeStyle=orthogonalEdgeStyle;rounded=0;orthogonalLoop=1;jettySize=auto;html=1;fontSize=25;spacing=2;strokeWidth=4;" edge="1" parent="1" source="RecCoixjSsOTJz9QzrSp-33" target="RecCoixjSsOTJz9QzrSp-46">
          <mxGeometry relative="1" as="geometry" />
        </mxCell>
        <mxCell id="RecCoixjSsOTJz9QzrSp-88" value="2" style="edgeStyle=orthogonalEdgeStyle;rounded=0;orthogonalLoop=1;jettySize=auto;html=1;fontSize=25;spacing=2;strokeWidth=4;" edge="1" parent="1" source="RecCoixjSsOTJz9QzrSp-33" target="RecCoixjSsOTJz9QzrSp-45">
          <mxGeometry x="0.2" relative="1" as="geometry">
            <mxPoint as="offset" />
          </mxGeometry>
        </mxCell>
        <mxCell id="RecCoixjSsOTJz9QzrSp-89" value="4" style="edgeStyle=orthogonalEdgeStyle;rounded=0;orthogonalLoop=1;jettySize=auto;html=1;entryX=0.5;entryY=0;entryDx=0;entryDy=0;fontSize=25;spacing=2;strokeWidth=4;" edge="1" parent="1" source="RecCoixjSsOTJz9QzrSp-33" target="RecCoixjSsOTJz9QzrSp-43">
          <mxGeometry relative="1" as="geometry" />
        </mxCell>
        <mxCell id="RecCoixjSsOTJz9QzrSp-33" value="&#xa;&lt;span style=&quot;color: rgb(0, 0, 0); font-family: Helvetica; font-size: 13px; font-style: normal; font-variant-ligatures: normal; font-variant-caps: normal; font-weight: 400; letter-spacing: normal; orphans: 2; text-align: center; text-indent: 0px; text-transform: none; widows: 2; word-spacing: 0px; -webkit-text-stroke-width: 0px; white-space: normal; background-color: rgb(251, 251, 251); text-decoration-thickness: initial; text-decoration-style: initial; text-decoration-color: initial; float: none; display: inline !important;&quot;&gt;Menu Admin&lt;/span&gt;&lt;div style=&quot;forced-color-adjust: none; color: rgb(0, 0, 0); font-family: Helvetica; font-size: 13px; font-style: normal; font-variant-ligatures: normal; font-variant-caps: normal; font-weight: 400; letter-spacing: normal; orphans: 2; text-align: center; text-indent: 0px; text-transform: none; widows: 2; word-spacing: 0px; -webkit-text-stroke-width: 0px; white-space: normal; background-color: rgb(251, 251, 251); text-decoration-thickness: initial; text-decoration-style: initial; text-decoration-color: initial;&quot;&gt;1. Tambah Booking&lt;/div&gt;&lt;div style=&quot;forced-color-adjust: none; color: rgb(0, 0, 0); font-family: Helvetica; font-size: 13px; font-style: normal; font-variant-ligatures: normal; font-variant-caps: normal; font-weight: 400; letter-spacing: normal; orphans: 2; text-align: center; text-indent: 0px; text-transform: none; widows: 2; word-spacing: 0px; -webkit-text-stroke-width: 0px; white-space: normal; background-color: rgb(251, 251, 251); text-decoration-thickness: initial; text-decoration-style: initial; text-decoration-color: initial;&quot;&gt;2. Lihat Booking&lt;/div&gt;&lt;div style=&quot;forced-color-adjust: none; color: rgb(0, 0, 0); font-family: Helvetica; font-size: 13px; font-style: normal; font-variant-ligatures: normal; font-variant-caps: normal; font-weight: 400; letter-spacing: normal; orphans: 2; text-align: center; text-indent: 0px; text-transform: none; widows: 2; word-spacing: 0px; -webkit-text-stroke-width: 0px; white-space: normal; background-color: rgb(251, 251, 251); text-decoration-thickness: initial; text-decoration-style: initial; text-decoration-color: initial;&quot;&gt;3. Update Booking&lt;/div&gt;&lt;div style=&quot;forced-color-adjust: none; color: rgb(0, 0, 0); font-family: Helvetica; font-size: 13px; font-style: normal; font-variant-ligatures: normal; font-variant-caps: normal; font-weight: 400; letter-spacing: normal; orphans: 2; text-align: center; text-indent: 0px; text-transform: none; widows: 2; word-spacing: 0px; -webkit-text-stroke-width: 0px; white-space: normal; background-color: rgb(251, 251, 251); text-decoration-thickness: initial; text-decoration-style: initial; text-decoration-color: initial;&quot;&gt;4. Hapus Booking&lt;/div&gt;&lt;div style=&quot;forced-color-adjust: none; color: rgb(0, 0, 0); font-family: Helvetica; font-size: 13px; font-style: normal; font-variant-ligatures: normal; font-variant-caps: normal; font-weight: 400; letter-spacing: normal; orphans: 2; text-align: center; text-indent: 0px; text-transform: none; widows: 2; word-spacing: 0px; -webkit-text-stroke-width: 0px; white-space: normal; background-color: rgb(251, 251, 251); text-decoration-thickness: initial; text-decoration-style: initial; text-decoration-color: initial;&quot;&gt;5. Keluar&lt;/div&gt;&#xa;&#xa;" style="rhombus;whiteSpace=wrap;html=1;fontSize=13;spacing=2;strokeWidth=4;" vertex="1" parent="1">
          <mxGeometry x="-830" y="780" width="240" height="200" as="geometry" />
        </mxCell>
        <mxCell id="RecCoixjSsOTJz9QzrSp-121" style="edgeStyle=orthogonalEdgeStyle;rounded=0;orthogonalLoop=1;jettySize=auto;html=1;fontSize=13;spacing=2;strokeWidth=4;" edge="1" parent="1" source="RecCoixjSsOTJz9QzrSp-42">
          <mxGeometry relative="1" as="geometry">
            <mxPoint x="390" y="146.88890245225696" as="targetPoint" />
            <Array as="points">
              <mxPoint x="-120" y="1020" />
              <mxPoint x="-120" y="147" />
            </Array>
          </mxGeometry>
        </mxCell>
        <mxCell id="RecCoixjSsOTJz9QzrSp-42" value="5. Keluar" style="shape=parallelogram;perimeter=parallelogramPerimeter;whiteSpace=wrap;html=1;fixedSize=1;fontSize=13;spacing=2;strokeWidth=4;" vertex="1" parent="1">
          <mxGeometry x="-280" y="990" width="120" height="60" as="geometry" />
        </mxCell>
        <mxCell id="RecCoixjSsOTJz9QzrSp-98" style="edgeStyle=orthogonalEdgeStyle;rounded=0;orthogonalLoop=1;jettySize=auto;html=1;entryX=0.5;entryY=0;entryDx=0;entryDy=0;fontSize=13;spacing=2;strokeWidth=4;" edge="1" parent="1" source="RecCoixjSsOTJz9QzrSp-43" target="RecCoixjSsOTJz9QzrSp-55">
          <mxGeometry relative="1" as="geometry" />
        </mxCell>
        <mxCell id="RecCoixjSsOTJz9QzrSp-43" value="4. Hapus Booking" style="shape=parallelogram;perimeter=parallelogramPerimeter;whiteSpace=wrap;html=1;fixedSize=1;fontSize=13;spacing=2;strokeWidth=4;" vertex="1" parent="1">
          <mxGeometry x="-555" y="1020" width="140" height="60" as="geometry" />
        </mxCell>
        <mxCell id="RecCoixjSsOTJz9QzrSp-96" style="edgeStyle=orthogonalEdgeStyle;rounded=0;orthogonalLoop=1;jettySize=auto;html=1;fontSize=13;spacing=2;strokeWidth=4;" edge="1" parent="1" source="RecCoixjSsOTJz9QzrSp-44" target="RecCoixjSsOTJz9QzrSp-54">
          <mxGeometry relative="1" as="geometry" />
        </mxCell>
        <mxCell id="RecCoixjSsOTJz9QzrSp-44" value="3. Update Booking" style="shape=parallelogram;perimeter=parallelogramPerimeter;whiteSpace=wrap;html=1;fixedSize=1;fontSize=13;spacing=2;strokeWidth=4;" vertex="1" parent="1">
          <mxGeometry x="-780" y="1060" width="140" height="50" as="geometry" />
        </mxCell>
        <mxCell id="RecCoixjSsOTJz9QzrSp-45" value="2. Lihat Booking" style="shape=parallelogram;perimeter=parallelogramPerimeter;whiteSpace=wrap;html=1;fixedSize=1;fontSize=13;spacing=2;strokeWidth=4;" vertex="1" parent="1">
          <mxGeometry x="-990" y="990" width="140" height="60" as="geometry" />
        </mxCell>
        <mxCell id="RecCoixjSsOTJz9QzrSp-93" style="edgeStyle=orthogonalEdgeStyle;rounded=0;orthogonalLoop=1;jettySize=auto;html=1;entryX=0.5;entryY=0;entryDx=0;entryDy=0;fontSize=13;spacing=2;strokeWidth=4;" edge="1" parent="1" source="RecCoixjSsOTJz9QzrSp-46" target="RecCoixjSsOTJz9QzrSp-58">
          <mxGeometry relative="1" as="geometry" />
        </mxCell>
        <mxCell id="RecCoixjSsOTJz9QzrSp-46" value="1. Tambah Booking" style="shape=parallelogram;perimeter=parallelogramPerimeter;whiteSpace=wrap;html=1;fixedSize=1;fontSize=13;spacing=2;strokeWidth=4;" vertex="1" parent="1">
          <mxGeometry x="-1295" y="990" width="150" height="60" as="geometry" />
        </mxCell>
        <mxCell id="RecCoixjSsOTJz9QzrSp-97" style="edgeStyle=orthogonalEdgeStyle;rounded=0;orthogonalLoop=1;jettySize=auto;html=1;fontSize=13;spacing=2;strokeWidth=4;" edge="1" parent="1" source="RecCoixjSsOTJz9QzrSp-54" target="RecCoixjSsOTJz9QzrSp-62">
          <mxGeometry relative="1" as="geometry" />
        </mxCell>
        <mxCell id="RecCoixjSsOTJz9QzrSp-54" value="Masukkan ID Booking&#xa;Masukkan Nama Pelanggan Baru&#xa;Masukkan pilihan (1-9) Jenis Makeup&#xa;Masukkan Alamat Pelanggan Baru&#xa;Masukkan Tanggal Booking Baru&#xa;Masukkan Jam Booking Baru&#xa;Masukkan Kontak Pelanggan Baru" style="whiteSpace=wrap;html=1;aspect=fixed;fontSize=13;spacing=2;strokeWidth=4;" vertex="1" parent="1">
          <mxGeometry x="-810" y="1190" width="200" height="200" as="geometry" />
        </mxCell>
        <mxCell id="RecCoixjSsOTJz9QzrSp-99" style="edgeStyle=orthogonalEdgeStyle;rounded=0;orthogonalLoop=1;jettySize=auto;html=1;fontSize=13;spacing=2;strokeWidth=4;" edge="1" parent="1" source="RecCoixjSsOTJz9QzrSp-55" target="RecCoixjSsOTJz9QzrSp-63">
          <mxGeometry relative="1" as="geometry" />
        </mxCell>
        <mxCell id="RecCoixjSsOTJz9QzrSp-55" value="Masukkan ID Booking" style="whiteSpace=wrap;html=1;aspect=fixed;fontSize=13;spacing=2;strokeWidth=4;" vertex="1" parent="1">
          <mxGeometry x="-545" y="1150" width="120" height="120" as="geometry" />
        </mxCell>
        <mxCell id="RecCoixjSsOTJz9QzrSp-94" style="edgeStyle=orthogonalEdgeStyle;rounded=0;orthogonalLoop=1;jettySize=auto;html=1;fontSize=13;spacing=2;strokeWidth=4;" edge="1" parent="1" source="RecCoixjSsOTJz9QzrSp-58">
          <mxGeometry relative="1" as="geometry">
            <mxPoint x="-1220" y="1400" as="targetPoint" />
          </mxGeometry>
        </mxCell>
        <mxCell id="RecCoixjSsOTJz9QzrSp-58" value="&lt;div style=&quot;font-size: 13px;&quot;&gt;Masukkan ID Booking&lt;/div&gt;&lt;div style=&quot;font-size: 13px;&quot;&gt;Masukkan Nama Pelanggan&lt;/div&gt;&lt;div style=&quot;font-size: 13px;&quot;&gt;Masukkan pilihan (1-9) Jenis Makeup&lt;/div&gt;&lt;div style=&quot;font-size: 13px;&quot;&gt;Masukkan Alamat Pelanggan&lt;/div&gt;&lt;div style=&quot;font-size: 13px;&quot;&gt;Masukkan Tanggal Booking&lt;/div&gt;&lt;div style=&quot;font-size: 13px;&quot;&gt;Masukkan Jam Booking&lt;/div&gt;&lt;div style=&quot;font-size: 13px;&quot;&gt;Masukkan Kontak Pelanggan&lt;/div&gt;&lt;div style=&quot;font-size: 13px;&quot;&gt;&lt;br style=&quot;font-size: 13px;&quot;&gt;&lt;/div&gt;" style="whiteSpace=wrap;html=1;aspect=fixed;fontSize=13;spacing=2;strokeWidth=4;" vertex="1" parent="1">
          <mxGeometry x="-1330" y="1120" width="220" height="220" as="geometry" />
        </mxCell>
        <mxCell id="RecCoixjSsOTJz9QzrSp-125" style="edgeStyle=orthogonalEdgeStyle;rounded=0;orthogonalLoop=1;jettySize=auto;html=1;fontSize=13;spacing=2;strokeWidth=4;" edge="1" parent="1" source="RecCoixjSsOTJz9QzrSp-59">
          <mxGeometry relative="1" as="geometry">
            <mxPoint x="-710" y="690" as="targetPoint" />
            <Array as="points">
              <mxPoint x="-1600" y="1430" />
              <mxPoint x="-1600" y="690" />
            </Array>
          </mxGeometry>
        </mxCell>
        <mxCell id="RecCoixjSsOTJz9QzrSp-59" value="Booking Telah Ditambahkan!" style="shape=parallelogram;perimeter=parallelogramPerimeter;whiteSpace=wrap;html=1;fixedSize=1;fontSize=13;spacing=2;strokeWidth=4;" vertex="1" parent="1">
          <mxGeometry x="-1280" y="1400" width="120" height="60" as="geometry" />
        </mxCell>
        <mxCell id="RecCoixjSsOTJz9QzrSp-126" style="edgeStyle=orthogonalEdgeStyle;rounded=0;orthogonalLoop=1;jettySize=auto;html=1;fontSize=13;spacing=2;strokeWidth=4;" edge="1" parent="1" source="RecCoixjSsOTJz9QzrSp-60">
          <mxGeometry relative="1" as="geometry">
            <mxPoint x="-710" y="720" as="targetPoint" />
            <Array as="points">
              <mxPoint x="-1050" y="1165" />
              <mxPoint x="-1050" y="720" />
            </Array>
          </mxGeometry>
        </mxCell>
        <mxCell id="RecCoixjSsOTJz9QzrSp-60" value="Menampilakan Tabel Jadwal Booking" style="shape=parallelogram;perimeter=parallelogramPerimeter;whiteSpace=wrap;html=1;fixedSize=1;fontSize=13;spacing=2;strokeWidth=4;" vertex="1" parent="1">
          <mxGeometry x="-1000" y="1130" width="130" height="70" as="geometry" />
        </mxCell>
        <mxCell id="RecCoixjSsOTJz9QzrSp-127" style="edgeStyle=orthogonalEdgeStyle;rounded=0;orthogonalLoop=1;jettySize=auto;html=1;fontSize=13;spacing=2;strokeWidth=4;exitX=1;exitY=0.5;exitDx=0;exitDy=0;" edge="1" parent="1" source="RecCoixjSsOTJz9QzrSp-62">
          <mxGeometry relative="1" as="geometry">
            <mxPoint x="-710" y="720" as="targetPoint" />
            <Array as="points">
              <mxPoint x="-660" y="1440" />
              <mxPoint x="-370" y="1440" />
              <mxPoint x="-370" y="720" />
            </Array>
          </mxGeometry>
        </mxCell>
        <mxCell id="RecCoixjSsOTJz9QzrSp-62" value="Booking Berhasil Diubah!" style="shape=parallelogram;perimeter=parallelogramPerimeter;whiteSpace=wrap;html=1;fixedSize=1;fontSize=13;spacing=2;strokeWidth=4;" vertex="1" parent="1">
          <mxGeometry x="-805" y="1440" width="190" height="60" as="geometry" />
        </mxCell>
        <mxCell id="RecCoixjSsOTJz9QzrSp-128" style="edgeStyle=orthogonalEdgeStyle;rounded=0;orthogonalLoop=1;jettySize=auto;html=1;fontSize=13;spacing=2;strokeWidth=4;" edge="1" parent="1" source="RecCoixjSsOTJz9QzrSp-63">
          <mxGeometry relative="1" as="geometry">
            <mxPoint x="-710" y="690" as="targetPoint" />
            <Array as="points">
              <mxPoint x="-290" y="1340" />
              <mxPoint x="-290" y="690" />
            </Array>
          </mxGeometry>
        </mxCell>
        <mxCell id="RecCoixjSsOTJz9QzrSp-63" value="Booking Berhasil Dihapus!" style="shape=parallelogram;perimeter=parallelogramPerimeter;whiteSpace=wrap;html=1;fixedSize=1;fontSize=13;spacing=2;strokeWidth=4;" vertex="1" parent="1">
          <mxGeometry x="-552.5" y="1320" width="135" height="60" as="geometry" />
        </mxCell>
        <mxCell id="RecCoixjSsOTJz9QzrSp-130" style="edgeStyle=orthogonalEdgeStyle;rounded=0;orthogonalLoop=1;jettySize=auto;html=1;fontSize=13;spacing=2;strokeWidth=4;" edge="1" parent="1" source="RecCoixjSsOTJz9QzrSp-65">
          <mxGeometry relative="1" as="geometry">
            <mxPoint x="1319.9999999999995" y="460" as="targetPoint" />
            <Array as="points">
              <mxPoint x="1680" y="1055" />
              <mxPoint x="1680" y="460" />
            </Array>
          </mxGeometry>
        </mxCell>
        <mxCell id="RecCoixjSsOTJz9QzrSp-65" value="Menampilkan Tabel Jenis Makeup" style="shape=parallelogram;perimeter=parallelogramPerimeter;whiteSpace=wrap;html=1;fixedSize=1;fontSize=13;spacing=2;strokeWidth=4;" vertex="1" parent="1">
          <mxGeometry x="1460" y="1020" width="140" height="70" as="geometry" />
        </mxCell>
        <mxCell id="RecCoixjSsOTJz9QzrSp-113" style="edgeStyle=orthogonalEdgeStyle;rounded=0;orthogonalLoop=1;jettySize=auto;html=1;entryX=0.5;entryY=0;entryDx=0;entryDy=0;fontSize=13;spacing=2;strokeWidth=4;" edge="1" parent="1" source="RecCoixjSsOTJz9QzrSp-67" target="RecCoixjSsOTJz9QzrSp-68">
          <mxGeometry relative="1" as="geometry" />
        </mxCell>
        <mxCell id="RecCoixjSsOTJz9QzrSp-67" value="&lt;div style=&quot;font-size: 13px;&quot;&gt;Masukkan ID Booking&lt;/div&gt;&lt;div style=&quot;font-size: 13px;&quot;&gt;Masukkan Nama Pelanggan&lt;/div&gt;&lt;div style=&quot;font-size: 13px;&quot;&gt;Masukkan pilihan (1-9) Jenis Makeup&lt;/div&gt;&lt;div style=&quot;font-size: 13px;&quot;&gt;Masukkan Alamat Pelanggan&lt;/div&gt;&lt;div style=&quot;font-size: 13px;&quot;&gt;Masukkan Tanggal Booking&lt;/div&gt;&lt;div style=&quot;font-size: 13px;&quot;&gt;Masukkan Jam Booking&lt;/div&gt;&lt;div style=&quot;font-size: 13px;&quot;&gt;Masukkan Kontak Pelanggan&lt;/div&gt;&lt;div style=&quot;font-size: 13px;&quot;&gt;&lt;br style=&quot;font-size: 13px;&quot;&gt;&lt;/div&gt;" style="whiteSpace=wrap;html=1;aspect=fixed;fontSize=13;spacing=2;strokeWidth=4;" vertex="1" parent="1">
          <mxGeometry x="1210" y="1060" width="220" height="220" as="geometry" />
        </mxCell>
        <mxCell id="RecCoixjSsOTJz9QzrSp-131" style="edgeStyle=orthogonalEdgeStyle;rounded=0;orthogonalLoop=1;jettySize=auto;html=1;fontSize=13;spacing=2;strokeWidth=4;" edge="1" parent="1" source="RecCoixjSsOTJz9QzrSp-68">
          <mxGeometry relative="1" as="geometry">
            <mxPoint x="1320" y="490" as="targetPoint" />
            <Array as="points">
              <mxPoint x="1780" y="1370" />
              <mxPoint x="1780" y="490" />
              <mxPoint x="1320" y="490" />
            </Array>
          </mxGeometry>
        </mxCell>
        <mxCell id="RecCoixjSsOTJz9QzrSp-68" value="Booking Telah Ditambahkan!" style="shape=parallelogram;perimeter=parallelogramPerimeter;whiteSpace=wrap;html=1;fixedSize=1;fontSize=13;spacing=2;strokeWidth=4;" vertex="1" parent="1">
          <mxGeometry x="1260" y="1340" width="120" height="60" as="geometry" />
        </mxCell>
        <mxCell id="RecCoixjSsOTJz9QzrSp-132" style="edgeStyle=orthogonalEdgeStyle;rounded=0;orthogonalLoop=1;jettySize=auto;html=1;fontSize=13;spacing=2;strokeWidth=4;" edge="1" parent="1" source="RecCoixjSsOTJz9QzrSp-72">
          <mxGeometry relative="1" as="geometry">
            <mxPoint x="1320" y="480" as="targetPoint" />
            <Array as="points">
              <mxPoint x="1030" y="480" />
            </Array>
          </mxGeometry>
        </mxCell>
        <mxCell id="RecCoixjSsOTJz9QzrSp-72" value="Menampilakan Tabel Jadwal Booking" style="shape=parallelogram;perimeter=parallelogramPerimeter;whiteSpace=wrap;html=1;fixedSize=1;fontSize=13;spacing=2;strokeWidth=4;" vertex="1" parent="1">
          <mxGeometry x="1000" y="1080" width="185" height="70" as="geometry" />
        </mxCell>
        <mxCell id="RecCoixjSsOTJz9QzrSp-77" style="edgeStyle=orthogonalEdgeStyle;rounded=0;orthogonalLoop=1;jettySize=auto;html=1;entryX=0.537;entryY=0.009;entryDx=0;entryDy=0;entryPerimeter=0;fontSize=13;spacing=2;strokeWidth=4;" edge="1" parent="1" source="RecCoixjSsOTJz9QzrSp-8" target="RecCoixjSsOTJz9QzrSp-32">
          <mxGeometry relative="1" as="geometry" />
        </mxCell>
        <mxCell id="RecCoixjSsOTJz9QzrSp-95" style="edgeStyle=orthogonalEdgeStyle;rounded=0;orthogonalLoop=1;jettySize=auto;html=1;entryX=0.615;entryY=0.029;entryDx=0;entryDy=0;entryPerimeter=0;fontSize=13;spacing=2;strokeWidth=4;" edge="1" parent="1" source="RecCoixjSsOTJz9QzrSp-45" target="RecCoixjSsOTJz9QzrSp-60">
          <mxGeometry relative="1" as="geometry" />
        </mxCell>
        <mxCell id="RecCoixjSsOTJz9QzrSp-104" value="3" style="edgeStyle=orthogonalEdgeStyle;rounded=0;orthogonalLoop=1;jettySize=auto;html=1;entryX=0.58;entryY=0.006;entryDx=0;entryDy=0;entryPerimeter=0;fontSize=25;spacing=2;strokeWidth=4;" edge="1" parent="1" source="RecCoixjSsOTJz9QzrSp-19" target="RecCoixjSsOTJz9QzrSp-30">
          <mxGeometry relative="1" as="geometry" />
        </mxCell>
        <mxCell id="RecCoixjSsOTJz9QzrSp-117" value="END" style="ellipse;whiteSpace=wrap;html=1;fontSize=13;spacing=2;strokeWidth=4;" vertex="1" parent="1">
          <mxGeometry x="325" y="780" width="110" height="60" as="geometry" />
        </mxCell>
      </root>
    </mxGraphModel>
  </diagram>
</mxfile>
